<svg width="31" height="28" viewBox="0 0 31 28" fill="none" xmlns="http://www.w3.org/2000/svg">
<path d="M29.6061 10.2972H22.9291L16.8237 0.6196C16.5588 0.206533 16.1128 0 15.6667 0C15.2206 0 14.7746 0.206533 14.5097 0.634352L8.40428 10.2972H1.72731C0.960647 10.2972 0.333374 10.961 0.333374 11.7724C0.333374 11.9052 0.347313 12.0379 0.389132 12.1707L3.92974 25.8462C4.25034 27.0854 5.32368 28 6.6061 28H24.7273C26.0097 28 27.0831 27.0854 27.4176 25.8462L30.9582 12.1707L31 11.7724C31 10.961 30.3728 10.2972 29.6061 10.2972ZM15.6667 4.10116L19.5697 10.2972H11.7637L15.6667 4.10116ZM24.7273 25.0495L6.62004 25.0643L3.55337 13.2476H27.794L24.7273 25.0495ZM15.6667 16.1981C14.1334 16.1981 12.8788 17.5258 12.8788 19.1486C12.8788 20.7713 14.1334 22.0991 15.6667 22.0991C17.2 22.0991 18.4546 20.7713 18.4546 19.1486C18.4546 17.5258 17.2 16.1981 15.6667 16.1981Z" fill="white"/>
</svg>
