<svg width="25.625000" height="25.000000" viewBox="0 0 25.625 25" fill="none" xmlns="http://www.w3.org/2000/svg" xmlns:xlink="http://www.w3.org/1999/xlink">
	<desc>
			Created with Pixso.
	</desc>
	<defs>
		<clipPath id="clip161_3490">
			<rect id="shopping_basket" width="25.625000" height="25.000000" fill="white" fill-opacity="0"/>
		</clipPath>
	</defs>
	<g clip-path="url(#clip161_3490)">
		<path id="Vector" d="M24.5 11.16L19.16 11.16L14.27 3.6C14.06 3.28 13.7 3.12 13.34 3.12C12.98 3.12 12.63 3.28 12.41 3.62L7.53 11.16L2.18 11.16C1.56 11.16 1.06 11.68 1.06 12.32C1.06 12.42 1.07 12.52 1.11 12.63L3.94 23.31C4.2 24.28 5.06 25 6.09 25L20.6 25C21.62 25 22.48 24.28 22.75 23.31L25.59 12.63L25.62 12.32C25.62 11.68 25.12 11.16 24.5 11.16ZM13.34 6.32L16.47 11.16L10.22 11.16L13.34 6.32ZM20.6 22.69L6.1 22.7L3.64 13.47L23.05 13.47L20.6 22.69ZM13.34 15.77C12.11 15.77 11.11 16.81 11.11 18.08C11.11 19.35 12.11 20.39 13.34 20.39C14.57 20.39 15.57 19.35 15.57 18.08C15.57 16.81 14.57 15.77 13.34 15.77Z" fill="#D63626" fill-opacity="1.000000" fill-rule="nonzero"/>
	</g>
</svg>
