<svg width="35.629700" height="34.759766" viewBox="0 0 35.6297 34.7598" fill="none" xmlns="http://www.w3.org/2000/svg" xmlns:xlink="http://www.w3.org/1999/xlink">
	<desc>
			Created with Pixso.
	</desc>
	<defs>
		<clipPath id="clip162_6167">
			<rect id="shopping_basket" width="35.629723" height="34.760704" fill="white" fill-opacity="0"/>
		</clipPath>
	</defs>
	<g clip-path="url(#clip162_6167)">
		<path id="Vector" d="M34.07 15.53L26.64 15.53L19.84 5.01C19.55 4.57 19.05 4.34 18.55 4.34C18.06 4.34 17.56 4.57 17.26 5.03L10.47 15.53L3.03 15.53C2.18 15.53 1.48 16.25 1.48 17.13C1.48 17.27 1.5 17.42 1.54 17.56L5.48 32.42C5.84 33.76 7.04 34.76 8.46 34.76L28.64 34.76C30.07 34.76 31.26 33.76 31.64 32.42L35.58 17.56L35.62 17.13C35.62 16.25 34.93 15.53 34.07 15.53ZM18.55 8.8L22.9 15.53L14.21 15.53L18.55 8.8ZM28.64 31.55L8.48 31.57L5.06 18.73L32.06 18.73L28.64 31.55ZM18.55 21.94C16.84 21.94 15.45 23.38 15.45 25.14C15.45 26.9 16.84 28.35 18.55 28.35C20.26 28.35 21.66 26.9 21.66 25.14C21.66 23.38 20.26 21.94 18.55 21.94Z" fill="#BDBDBD" fill-opacity="1.000000" fill-rule="nonzero"/>
	</g>
</svg>
