<svg width="19.000000" height="20.000000" viewBox="0 0 19 20" fill="none" xmlns="http://www.w3.org/2000/svg" xmlns:xlink="http://www.w3.org/1999/xlink">
	<desc>
			Created with Pixso.
	</desc>
	<defs/>
	<path id="Vector" d="M9 0L3.5 9L14.5 9L9 0ZM9 3.83L10.92 7L7.06 7L9 3.83ZM14.5 11C12.01 11 10 13.01 10 15.5C10 17.99 12.01 20 14.5 20C16.99 20 19 17.99 19 15.5C19 13.01 16.99 11 14.5 11ZM14.5 18C13.12 18 12 16.87 12 15.5C12 14.12 13.12 13 14.5 13C15.87 13 17 14.12 17 15.5C17 16.87 15.87 18 14.5 18ZM0 19.5L8 19.5L8 11.5L0 11.5L0 19.5ZM2 13.5L6 13.5L6 17.5L2 17.5L2 13.5Z" fill="#F2F2F2" fill-opacity="1.000000" fill-rule="nonzero"/>
</svg>
