<svg width="26" height="25" viewBox="0 0 26 25" fill="none" xmlns="http://www.w3.org/2000/svg">
<g clip-path="url(#clip0_161_3490)">
<path d="M24.5088 11.1697H19.162L14.2729 3.60906C14.0608 3.28635 13.7036 3.125 13.3464 3.125C12.9892 3.125 12.632 3.28635 12.4199 3.62059L7.53078 11.1697H2.18399C1.57006 11.1697 1.06775 11.6883 1.06775 12.3222C1.06775 12.4259 1.07891 12.5296 1.1124 12.6334L3.94765 23.3173C4.20438 24.2854 5.06389 25 6.09083 25H20.602C21.6289 25 22.4884 24.2854 22.7563 23.3173L25.5916 12.6334L25.625 12.3222C25.625 11.6883 25.1227 11.1697 24.5088 11.1697ZM13.3464 6.32903L16.4719 11.1697H10.2209L13.3464 6.32903ZM20.602 22.6949L6.10199 22.7065L3.64626 13.4747H23.0577L20.602 22.6949ZM13.3464 15.7798C12.1185 15.7798 11.1139 16.817 11.1139 18.0848C11.1139 19.3526 12.1185 20.3899 13.3464 20.3899C14.5743 20.3899 15.5789 19.3526 15.5789 18.0848C15.5789 16.817 14.5743 15.7798 13.3464 15.7798Z" fill="#D63626"/>
</g>
<defs>
<clipPath id="clip0_161_3490">
<rect width="25.625" height="25" fill="white"/>
</clipPath>
</defs>
</svg>
