<svg width="35" height="31" viewBox="0 0 35 31" fill="none" xmlns="http://www.w3.org/2000/svg">
<path d="M33.3723 11.4355H25.938L19.14 0.923054C18.8451 0.474351 18.3485 0.25 17.8518 0.25C17.3552 0.25 16.8585 0.474351 16.5636 0.939079L9.76562 11.4355H2.33129C1.47766 11.4355 0.779236 12.1566 0.779236 13.038C0.779236 13.1822 0.794756 13.3265 0.841318 13.4707L4.78353 28.326C5.1405 29.6721 6.33558 30.6656 7.76347 30.6656H27.9402C29.368 30.6656 30.5631 29.6721 30.9356 28.326L34.8778 13.4707L34.9244 13.038C34.9244 12.1566 34.226 11.4355 33.3723 11.4355ZM17.8518 4.70497L22.1976 11.4355H13.5061L17.8518 4.70497ZM27.9402 27.4606L7.77899 27.4766L4.36448 14.6405H31.3547L27.9402 27.4606ZM17.8518 17.8455C16.1446 17.8455 14.7477 19.2878 14.7477 21.0506C14.7477 22.8133 16.1446 24.2556 17.8518 24.2556C19.5591 24.2556 20.9559 22.8133 20.9559 21.0506C20.9559 19.2878 19.5591 17.8455 17.8518 17.8455Z" fill="#BDBDBD"/>
</svg>
