<svg width="20.000000" height="20.000000" viewBox="0 0 20 20" fill="none" xmlns="http://www.w3.org/2000/svg" xmlns:xlink="http://www.w3.org/1999/xlink">
	<desc>
			Created with Pixso.
	</desc>
	<defs/>
	<path id="Vector" d="M19.4 9.57L10.4 0.57C10.05 0.21 9.55 0 9 0L2 0C0.89 0 0 0.9 0 2L0 9C0 9.55 0.21 10.05 0.59 10.42L9.59 19.42C9.94 19.78 10.45 20 11 20C11.55 20 12.05 19.78 12.4 19.41L19.4 12.41C19.78 12.05 20 11.55 20 11C20 10.45 19.77 9.93 19.4 9.57ZM3.5 5C2.66 5 2 4.32 2 3.5C2 2.67 2.66 2 3.5 2C4.33 2 5 2.67 5 3.5C5 4.32 4.33 5 3.5 5Z" fill="#F2F2F2" fill-opacity="1.000000" fill-rule="nonzero"/>
</svg>
