<svg width="19.000000" height="19.000000" viewBox="0 0 19 19" fill="none" xmlns="http://www.w3.org/2000/svg" xmlns:xlink="http://www.w3.org/1999/xlink">
	<desc>
			Created with Pixso.
	</desc>
	<defs/>
	<path id="Vector" d="M18 1.5L0 1.5C-0.42 1.5 -0.75 1.83 -0.75 2.25L-0.75 14.25C-0.75 14.66 -0.43 15 -0.01 15L18 15C18.41 15 18.75 14.66 18.75 14.25L18.75 2.25C18.75 1.83 18.41 1.5 18 1.5ZM16.5 12.75L1.5 12.75L1.5 3.75L16.5 3.75L16.5 12.75ZM0.75 18.75L3.42 18.75L4.47 15.75L1.83 15.75L0.75 18.75ZM10.09 -0.75L7.9 -0.75L7.36 0.75L10.63 0.75L10.09 -0.75ZM14.57 18.75L17.25 18.75L16.17 15.75L13.52 15.75L14.57 18.75ZM7.87 15.75L10.12 15.75L10.12 17.25L7.87 17.25L7.87 15.75Z" fill="#F2F2F2" fill-opacity="1.000000" fill-rule="nonzero"/>
</svg>
