<svg width="19.000000" height="18.000000" viewBox="0 0 19 18" fill="none" xmlns="http://www.w3.org/2000/svg" xmlns:xlink="http://www.w3.org/1999/xlink">
	<desc>
			Created with Pixso.
	</desc>
	<defs/>
	<path id="Vector" d="M18.89 5.89L17.85 1.52C17.63 0.61 16.85 0 15.93 0L2.05 0C1.14 0 0.36 0.63 0.14 1.52L-0.9 5.89C-1.14 6.91 -0.92 7.94 -0.29 8.77C-0.2 8.88 -0.1 8.95 0 9.06L0 16C0 17.1 0.89 18 2 18L16 18C17.1 18 18 17.1 18 16L18 9.06C18.09 8.96 18.2 8.88 18.28 8.78C18.91 7.95 19.14 6.91 18.89 5.89ZM15.9 1.98L16.95 6.35C17.06 6.78 16.96 7.19 16.7 7.53C16.57 7.7 16.27 8 15.77 8C15.15 8 14.63 7.51 14.56 6.85L13.98 2L15.9 1.98ZM10 2L11.96 2L12.5 6.52C12.55 6.91 12.42 7.3 12.16 7.58C11.95 7.84 11.63 8 11.22 8C10.55 8 10 7.41 10 6.68L10 2ZM5.48 6.52L6.04 2L8 2L8 6.68C8 7.41 7.44 8 6.7 8C6.37 8 6.06 7.84 5.82 7.58C5.57 7.3 5.44 6.91 5.48 6.52ZM1.04 6.35L2.05 2L4.02 2L3.43 6.85C3.36 7.51 2.84 8 2.22 8C1.73 8 1.42 7.7 1.3 7.53C1.03 7.2 0.93 6.78 1.04 6.35ZM2 16L2 9.96C2.08 9.97 2.14 10 2.22 10C3.1 10 3.88 9.64 4.46 9.05C5.07 9.65 5.87 10 6.78 10C7.64 10 8.42 9.64 9.01 9.06C9.6 9.64 10.39 10 11.3 10C12.13 10 12.93 9.65 13.54 9.05C14.12 9.64 14.9 10 15.78 10C15.86 10 15.92 9.97 16.01 9.96L16.01 16L2 16Z" fill="#F2F2F2" fill-opacity="1.000000" fill-rule="nonzero"/>
</svg>
