<svg width="18.000000" height="20.000000" viewBox="0 0 18 20" fill="none" xmlns="http://www.w3.org/2000/svg" xmlns:xlink="http://www.w3.org/1999/xlink">
	<desc>
			Created with Pixso.
	</desc>
	<defs/>
	<path id="Vector" d="M16 2L11.82 2C11.39 0.83 10.3 0 9 0C7.69 0 6.6 0.83 6.17 2L2 2C0.89 2 0 2.9 0 4L0 18C0 19.1 0.89 20 2 20L16 20C17.1 20 18 19.1 18 18L18 4C18 2.9 17.1 2 16 2ZM9 2C9.55 2 10 2.44 10 3C10 3.55 9.55 4 9 4C8.44 4 8 3.55 8 3C8 2.44 8.44 2 9 2ZM11 16L4 16L4 14L11 14L11 16ZM14 12L4 12L4 10L14 10L14 12ZM14 8L4 8L4 6L14 6L14 8Z" fill="#F2F2F2" fill-opacity="1.000000" fill-rule="nonzero"/>
</svg>
