<svg width="24" height="24" viewBox="0 0 24 24" fill="none" xmlns="http://www.w3.org/2000/svg">
<path fill-rule="evenodd" clip-rule="evenodd" d="M11.9999 17C8.48545 17 5.57041 14.9811 4.10227 12C5.57041 9.01886 8.48545 7 11.9999 7C15.5144 7 18.4296 9.01888 19.8977 12C18.4296 14.9811 15.5144 17 11.9999 17ZM11.9999 5C7.46832 5 3.77203 7.73532 2.08365 11.5996C1.97212 11.8549 1.97212 12.1451 2.08365 12.4004C3.77203 16.2647 7.46832 19 11.9999 19C16.5316 19 20.228 16.2647 21.9164 12.4004C22.0279 12.1451 22.0279 11.8549 21.9164 11.5996C20.228 7.73532 16.5316 5 11.9999 5ZM10 12C10 10.8954 10.8954 10 12 10C13.1046 10 14 10.8954 14 12C14 13.1046 13.1046 14 12 14C10.8954 14 10 13.1046 10 12ZM12 8C9.79086 8 8 9.79086 8 12C8 14.2091 9.79086 16 12 16C14.2091 16 16 14.2091 16 12C16 9.79086 14.2091 8 12 8Z" fill="#181617"/>
</svg>
