<svg width="33" height="20" viewBox="0 0 33 20" fill="none" xmlns="http://www.w3.org/2000/svg">
<path d="M16.5 0C9.20831 0 2.98123 4.14667 0.458313 10C2.98123 15.8533 9.20831 20 16.5 20C23.7916 20 30.0187 15.8533 32.5416 10C30.0187 4.14667 23.7916 0 16.5 0ZM16.5 17.3333C10.9729 17.3333 6.04373 14.4933 3.63748 10C6.04373 5.50667 10.9729 2.66667 16.5 2.66667C22.0271 2.66667 26.9562 5.50667 29.3625 10C26.9562 14.4933 22.0271 17.3333 16.5 17.3333ZM16.5 4C12.8833 4 9.93748 6.69333 9.93748 10C9.93748 13.3067 12.8833 16 16.5 16C20.1166 16 23.0625 13.3067 23.0625 10C23.0625 6.69333 20.1166 4 16.5 4ZM16.5 13.3333C14.4875 13.3333 12.8541 11.84 12.8541 10C12.8541 8.16 14.4875 6.66667 16.5 6.66667C18.5125 6.66667 20.1458 8.16 20.1458 10C20.1458 11.84 18.5125 13.3333 16.5 13.3333Z" fill="#4F4F4F"/>
</svg>
