<svg width="146" height="141" viewBox="0 0 146 141" fill="none" xmlns="http://www.w3.org/2000/svg">
<rect width="146" height="141" rx="70.5" fill="white"/>
<path d="M50.8115 105.759V98.4902H52.9385V108H50.9346L50.8115 105.759ZM51.1104 103.781L51.8223 103.764C51.8223 104.402 51.752 104.991 51.6113 105.53C51.4707 106.063 51.2539 106.529 50.9609 106.928C50.668 107.32 50.293 107.628 49.8359 107.851C49.3789 108.067 48.8311 108.176 48.1924 108.176C47.7295 108.176 47.3047 108.108 46.918 107.974C46.5312 107.839 46.1973 107.631 45.916 107.35C45.6406 107.068 45.4268 106.702 45.2744 106.251C45.1221 105.8 45.0459 105.261 45.0459 104.634V98.4902H47.1641V104.651C47.1641 104.997 47.2051 105.287 47.2871 105.521C47.3691 105.75 47.4805 105.935 47.6211 106.075C47.7617 106.216 47.9258 106.315 48.1133 106.374C48.3008 106.433 48.5 106.462 48.7109 106.462C49.3145 106.462 49.7891 106.345 50.1348 106.11C50.4863 105.87 50.7354 105.548 50.8818 105.144C51.0342 104.739 51.1104 104.285 51.1104 103.781ZM57.4163 100.318V111.656H55.2982V98.4902H57.2493L57.4163 100.318ZM63.6126 103.157V103.342C63.6126 104.033 63.5306 104.675 63.3665 105.267C63.2083 105.853 62.971 106.365 62.6546 106.805C62.3441 107.238 61.9603 107.575 61.5032 107.815C61.0462 108.056 60.5189 108.176 59.9212 108.176C59.3294 108.176 58.8109 108.067 58.3655 107.851C57.9261 107.628 57.554 107.314 57.2493 106.91C56.9446 106.506 56.6986 106.031 56.5111 105.486C56.3294 104.936 56.2005 104.332 56.1243 103.676V102.964C56.2005 102.267 56.3294 101.634 56.5111 101.065C56.6986 100.497 56.9446 100.008 57.2493 99.5977C57.554 99.1875 57.9261 98.8711 58.3655 98.6484C58.805 98.4258 59.3177 98.3145 59.9036 98.3145C60.5013 98.3145 61.0316 98.4316 61.4945 98.666C61.9573 98.8945 62.347 99.2227 62.6634 99.6504C62.9798 100.072 63.2171 100.582 63.3753 101.18C63.5335 101.771 63.6126 102.431 63.6126 103.157ZM61.4945 103.342V103.157C61.4945 102.718 61.4534 102.311 61.3714 101.936C61.2894 101.555 61.1605 101.221 60.9847 100.934C60.8089 100.646 60.5833 100.424 60.3079 100.266C60.0384 100.102 59.7132 100.02 59.3323 100.02C58.9573 100.02 58.6351 100.084 58.3655 100.213C58.096 100.336 57.8704 100.509 57.6888 100.731C57.5071 100.954 57.3665 101.215 57.2669 101.514C57.1673 101.807 57.097 102.126 57.056 102.472V104.177C57.1263 104.599 57.2464 104.985 57.4163 105.337C57.5863 105.688 57.8265 105.97 58.137 106.181C58.4534 106.386 58.8577 106.488 59.3499 106.488C59.7308 106.488 60.056 106.406 60.3255 106.242C60.595 106.078 60.8148 105.853 60.9847 105.565C61.1605 105.272 61.2894 104.936 61.3714 104.555C61.4534 104.174 61.4945 103.77 61.4945 103.342ZM67.862 94.5V108H65.735V94.5H67.862ZM69.958 103.351V103.148C69.958 102.463 70.0576 101.827 70.2568 101.241C70.456 100.649 70.7431 100.137 71.1181 99.7031C71.499 99.2637 71.9619 98.9238 72.5068 98.6836C73.0576 98.4375 73.6787 98.3145 74.3701 98.3145C75.0673 98.3145 75.6884 98.4375 76.2334 98.6836C76.7841 98.9238 77.25 99.2637 77.6308 99.7031C78.0117 100.137 78.3017 100.649 78.5009 101.241C78.7002 101.827 78.7998 102.463 78.7998 103.148V103.351C78.7998 104.036 78.7002 104.672 78.5009 105.258C78.3017 105.844 78.0117 106.356 77.6308 106.796C77.25 107.229 76.7871 107.569 76.2421 107.815C75.6972 108.056 75.0791 108.176 74.3877 108.176C73.6904 108.176 73.0664 108.056 72.5156 107.815C71.9707 107.569 71.5078 107.229 71.1269 106.796C70.7461 106.356 70.456 105.844 70.2568 105.258C70.0576 104.672 69.958 104.036 69.958 103.351ZM72.0761 103.148V103.351C72.0761 103.778 72.1201 104.183 72.208 104.563C72.2959 104.944 72.4336 105.278 72.6211 105.565C72.8086 105.853 73.0488 106.078 73.3418 106.242C73.6347 106.406 73.9834 106.488 74.3877 106.488C74.7802 106.488 75.1201 106.406 75.4072 106.242C75.7002 106.078 75.9404 105.853 76.1279 105.565C76.3154 105.278 76.4531 104.944 76.541 104.563C76.6347 104.183 76.6816 103.778 76.6816 103.351V103.148C76.6816 102.727 76.6347 102.328 76.541 101.953C76.4531 101.572 76.3125 101.235 76.1191 100.942C75.9316 100.649 75.6914 100.421 75.3984 100.257C75.1113 100.087 74.7685 100.002 74.3701 100.002C73.9716 100.002 73.6259 100.087 73.333 100.257C73.0459 100.421 72.8086 100.649 72.6211 100.942C72.4336 101.235 72.2959 101.572 72.208 101.953C72.1201 102.328 72.0761 102.727 72.0761 103.148ZM86.1165 106.093V101.558C86.1165 101.218 86.055 100.925 85.9319 100.679C85.8089 100.433 85.6214 100.242 85.3694 100.107C85.1233 99.9727 84.8128 99.9053 84.4378 99.9053C84.0921 99.9053 83.7932 99.9639 83.5413 100.081C83.2893 100.198 83.093 100.356 82.9524 100.556C82.8118 100.755 82.7415 100.98 82.7415 101.232H80.6321C80.6321 100.857 80.7229 100.494 80.9046 100.143C81.0862 99.791 81.3499 99.4775 81.6956 99.2021C82.0413 98.9268 82.4544 98.71 82.9348 98.5518C83.4153 98.3936 83.9544 98.3145 84.552 98.3145C85.2669 98.3145 85.8997 98.4346 86.4505 98.6748C87.0071 98.915 87.4436 99.2783 87.76 99.7646C88.0823 100.245 88.2434 100.849 88.2434 101.575V105.803C88.2434 106.236 88.2727 106.626 88.3313 106.972C88.3958 107.312 88.4866 107.607 88.6038 107.859V108H86.4329C86.3333 107.771 86.2542 107.481 86.1956 107.13C86.1429 106.772 86.1165 106.427 86.1165 106.093ZM86.4241 102.217L86.4417 103.526H84.9212C84.5286 103.526 84.1829 103.564 83.8841 103.641C83.5852 103.711 83.3362 103.816 83.137 103.957C82.9378 104.098 82.7884 104.268 82.6888 104.467C82.5891 104.666 82.5393 104.892 82.5393 105.144C82.5393 105.396 82.5979 105.627 82.7151 105.838C82.8323 106.043 83.0022 106.204 83.2249 106.321C83.4534 106.438 83.7288 106.497 84.0511 106.497C84.4846 106.497 84.8626 106.409 85.1848 106.233C85.513 106.052 85.7708 105.832 85.9583 105.574C86.1458 105.311 86.2454 105.062 86.2571 104.827L86.9427 105.768C86.8723 106.008 86.7522 106.266 86.5823 106.541C86.4124 106.816 86.1897 107.08 85.9143 107.332C85.6448 107.578 85.3196 107.78 84.9388 107.938C84.5638 108.097 84.1302 108.176 83.638 108.176C83.0169 108.176 82.4632 108.053 81.9768 107.807C81.4905 107.555 81.1096 107.218 80.8343 106.796C80.5589 106.368 80.4212 105.885 80.4212 105.346C80.4212 104.842 80.5149 104.396 80.7024 104.01C80.8958 103.617 81.177 103.289 81.5462 103.025C81.9212 102.762 82.3782 102.562 82.9173 102.428C83.4563 102.287 84.0716 102.217 84.763 102.217H86.4241ZM96.4391 106.031V94.5H98.566V108H96.6412L96.4391 106.031ZM90.2516 103.351V103.166C90.2516 102.445 90.3365 101.789 90.5064 101.197C90.6764 100.6 90.9225 100.087 91.2447 99.6592C91.567 99.2256 91.9596 98.8945 92.4225 98.666C92.8854 98.4316 93.4068 98.3145 93.9869 98.3145C94.5611 98.3145 95.065 98.4258 95.4986 98.6484C95.9322 98.8711 96.3014 99.1904 96.6061 99.6064C96.9107 100.017 97.1539 100.509 97.3355 101.083C97.5172 101.651 97.6461 102.284 97.7223 102.981V103.57C97.6461 104.25 97.5172 104.871 97.3355 105.434C97.1539 105.996 96.9107 106.482 96.6061 106.893C96.3014 107.303 95.9293 107.619 95.4898 107.842C95.0563 108.064 94.5494 108.176 93.9693 108.176C93.3951 108.176 92.8766 108.056 92.4137 107.815C91.9566 107.575 91.567 107.238 91.2447 106.805C90.9225 106.371 90.6764 105.861 90.5064 105.275C90.3365 104.684 90.2516 104.042 90.2516 103.351ZM92.3697 103.166V103.351C92.3697 103.784 92.4078 104.188 92.484 104.563C92.566 104.938 92.692 105.27 92.8619 105.557C93.0318 105.838 93.2516 106.061 93.5211 106.225C93.7965 106.383 94.1246 106.462 94.5055 106.462C94.9859 106.462 95.3814 106.356 95.692 106.146C96.0025 105.935 96.2457 105.65 96.4215 105.293C96.6031 104.93 96.7262 104.525 96.7906 104.08V102.489C96.7555 102.144 96.6822 101.821 96.5709 101.522C96.4654 101.224 96.3219 100.963 96.1402 100.74C95.9586 100.512 95.733 100.336 95.4635 100.213C95.1998 100.084 94.8863 100.02 94.523 100.02C94.1363 100.02 93.8082 100.102 93.5387 100.266C93.2691 100.43 93.0465 100.655 92.8707 100.942C92.7008 101.229 92.5748 101.563 92.4928 101.944C92.4107 102.325 92.3697 102.732 92.3697 103.166Z" fill="#929292"/>
<g clip-path="url(#clip0_7374_4507)">
<path d="M91.375 51.1C89.675 42.475 82.1 36 73 36C65.775 36 59.5 40.1 56.375 46.1C48.85 46.9 43 53.275 43 61C43 69.275 49.725 76 58 76H90.5C97.4 76 103 70.4 103 63.5C103 56.9 97.875 51.55 91.375 51.1ZM78 58.5V68.5H68V58.5H60.5L72.125 46.875C72.625 46.375 73.4 46.375 73.9 46.875L85.5 58.5H78Z" fill="#6FCF97"/>
</g>
<defs>
<clipPath id="clip0_7374_4507">
<rect width="60" height="60" fill="white" transform="translate(43 26)"/>
</clipPath>
</defs>
</svg>
